<svg width="40" height="40" viewBox="0 0 40 40" fill="none" xmlns="http://www.w3.org/2000/svg">
<circle cx="20" cy="20" r="20" fill="white"/>
<path d="M27.2671 19.9155L31.6684 17.7869C33.0819 17.096 34.1634 15.8721 34.6755 14.3841C35.1875 12.896 35.0882 11.2656 34.3993 9.85076L23.4687 15.1723V8.93545C23.4687 8.15619 23.3152 7.38456 23.0169 6.66466C22.7187 5.94476 22.2816 5.29069 21.7306 4.73983C21.1796 4.18897 20.5254 3.75212 19.8056 3.45423C19.0857 3.15634 18.3142 3.00326 17.5352 3.00372V15.1652L11.9386 12.4335C10.5244 11.7434 8.89406 11.6436 7.40622 12.1559C5.91838 12.6681 4.69489 13.7506 4.00486 15.1652L13.7403 19.9155L9.33896 22.0654C8.63843 22.4068 8.01203 22.883 7.49559 23.4668C6.97914 24.0505 6.58278 24.7303 6.32916 25.4673C6.07553 26.2044 5.96962 26.9842 6.01748 27.7622C6.06534 28.5403 6.26603 29.3012 6.60807 30.0016L17.5352 24.6801V30.9098C17.5352 32.4839 18.1603 33.9936 19.2731 35.1067C20.3858 36.2198 21.895 36.8451 23.4687 36.8451V24.6659L29.0652 27.3976C29.7654 27.7398 30.5261 27.9405 31.3039 27.9884C32.0817 28.0363 32.8613 27.9303 33.5981 27.6766C34.3349 27.4229 35.0146 27.0264 35.5981 26.5098C36.1817 25.9932 36.6577 25.3666 36.999 24.6659L27.2671 19.9155Z" fill="white"/>
<g style="mix-blend-mode:multiply">
<path d="M36.9994 24.6702C36.6577 25.3707 36.1814 25.997 35.5977 26.5134C35.014 27.0297 34.3344 27.4261 33.5976 27.6797C32.8608 27.9333 32.0813 28.0393 31.3036 27.9916C30.5259 27.9439 29.7651 27.7434 29.0648 27.4016L19.1998 22.5865L21.8018 17.2524L36.9994 24.6702Z" fill="#F15A31"/>
</g>
<g style="mix-blend-mode:multiply">
<path d="M21.803 17.2519L19.201 22.586L4.00345 15.1681C4.69354 13.7534 5.91719 12.6709 7.4052 12.1587C8.89321 11.6464 10.5237 11.7465 11.938 12.4368L21.803 17.2519Z" fill="#F7941D"/>
</g>
<g style="mix-blend-mode:multiply">
<path d="M19.1975 17.2487L21.7995 22.5829L6.602 30.0007C5.91191 28.586 5.81189 26.955 6.32396 25.4666C6.83604 23.9781 7.91825 22.7541 9.33252 22.0638L19.1975 17.2487Z" fill="#00A5E5"/>
</g>
<g style="mix-blend-mode:multiply">
<path d="M34.3964 9.8342C35.0865 11.2489 35.1865 12.8799 34.6744 14.3683C34.1624 15.8568 33.0802 17.0808 31.6659 17.7711L21.8009 22.5862L19.1989 17.2521L34.3964 9.8342Z" fill="#2BB673"/>
</g>
<g style="mix-blend-mode:multiply">
<path d="M23.4676 36.8343C22.6884 36.8343 21.9169 36.6808 21.197 36.3825C20.4771 36.0842 19.823 35.647 19.272 35.0959C18.7211 34.5447 18.284 33.8904 17.9858 33.1703C17.6876 32.4502 17.5342 31.6784 17.5342 30.899V19.9189H23.4676L23.4676 36.8343Z" fill="#984A9C"/>
</g>
<g style="mix-blend-mode:multiply">
<path d="M23.4676 19.9154H17.5342V3.00001C18.3134 3.00001 19.0849 3.15353 19.8048 3.45181C20.5247 3.75008 21.1788 4.18727 21.7298 4.73841C22.2807 5.28956 22.7178 5.94386 23.016 6.66396C23.3142 7.38406 23.4676 8.15586 23.4676 8.93529V19.9154Z" fill="#F04E58"/>
</g>
</svg>
