<svg width="28" height="28" viewBox="0 0 28 28" fill="none" xmlns="http://www.w3.org/2000/svg">
<circle cx="14" cy="14" r="14" fill="white"/>
<path d="M14 6C12.9391 6 11.9217 6.42143 11.1716 7.17157C10.4214 7.92172 10 8.93913 10 10C10 11.0609 10.4214 12.0783 11.1716 12.8284C11.9217 13.5786 12.9391 14 14 14C15.0609 14 16.0783 13.5786 16.8284 12.8284C17.5786 12.0783 18 11.0609 18 10C18 8.93913 17.5786 7.92172 16.8284 7.17157C16.0783 6.42143 15.0609 6 14 6ZM8 10C8 8.4087 8.63214 6.88258 9.75736 5.75736C10.8826 4.63214 12.4087 4 14 4C15.5913 4 17.1174 4.63214 18.2426 5.75736C19.3679 6.88258 20 8.4087 20 10C20 11.5913 19.3679 13.1174 18.2426 14.2426C17.1174 15.3679 15.5913 16 14 16C12.4087 16 10.8826 15.3679 9.75736 14.2426C8.63214 13.1174 8 11.5913 8 10ZM10 20C9.20435 20 8.44129 20.3161 7.87868 20.8787C7.31607 21.4413 7 22.2044 7 23C7 23.2652 6.89464 23.5196 6.70711 23.7071C6.51957 23.8946 6.26522 24 6 24C5.73478 24 5.48043 23.8946 5.29289 23.7071C5.10536 23.5196 5 23.2652 5 23C5 21.6739 5.52678 20.4021 6.46447 19.4645C7.40215 18.5268 8.67392 18 10 18H18C19.3261 18 20.5979 18.5268 21.5355 19.4645C22.4732 20.4021 23 21.6739 23 23C23 23.2652 22.8946 23.5196 22.7071 23.7071C22.5196 23.8946 22.2652 24 22 24C21.7348 24 21.4804 23.8946 21.2929 23.7071C21.1054 23.5196 21 23.2652 21 23C21 22.2044 20.6839 21.4413 20.1213 20.8787C19.5587 20.3161 18.7956 20 18 20H10Z" fill="#4A266E"/>
</svg>
